<svg xmlns="http://www.w3.org/2000/svg" width="32" height="32" viewBox="0 0 32 32" fill="none" stroke="currentColor" stroke-width="2" stroke-linecap="round" stroke-linejoin="round">
  <!-- Brush icon -->
  <path d="M8 19l5-5a4 4 0 0 1 6 6l-5 5" />
  <path d="M16 9l-1-1" />
  <path d="M13 6l-1-1" />
  <path d="M10 9L9 8" />
  <path d="M13 12l-1-1" />
  <!-- Gear icon -->
  <circle cx="16" cy="16" r="6" />
  <path d="M16 12v-2" />
  <path d="M16 22v-2" />
  <path d="M20 16h2" />
  <path d="M10 16h2" />
  <path d="M19 13l1.5-1.5" />
  <path d="M11.5 20.5L13 19" />
  <path d="M19 19l1.5 1.5" />
  <path d="M11.5 11.5L13 13" />
</svg>