<svg xmlns="http://www.w3.org/2000/svg" width="32" height="32" viewBox="0 0 32 32">
  <defs>
    <linearGradient id="neonGlow" x1="0%" y1="0%" x2="100%" y2="100%">
      <stop offset="0%" style="stop-color:#ff00ff;stop-opacity:1" />
      <stop offset="100%" style="stop-color:#00ffff;stop-opacity:1" />
    </linearGradient>
  </defs>
  
  <!-- Neural network heart shape with glow effect -->
  <g fill="none" stroke="url(#neonGlow)" stroke-width="1.5" stroke-linecap="round">
    <!-- Central heart shape -->
    <path d="M16 8 L20 4 Q24 4 24 8 T20 12 L16 16 L12 12 Q8 12 8 8 T12 4 L16 8" />
    
    <!-- Neural connections -->
    <path d="M16 16 L16 24" />
    <path d="M12 12 L8 16 L4 16" />
    <path d="M20 12 L24 16 L28 16" />
    
    <!-- Connection nodes -->
    <circle cx="16" cy="8" r="1" fill="#fff" />
    <circle cx="16" cy="16" r="1" fill="#fff" />
    <circle cx="16" cy="24" r="1" fill="#fff" />
    <circle cx="12" cy="12" r="1" fill="#fff" />
    <circle cx="20" cy="12" r="1" fill="#fff" />
    <circle cx="8" cy="16" r="1" fill="#fff" />
    <circle cx="24" cy="16" r="1" fill="#fff" />
    <circle cx="4" cy="16" r="1" fill="#fff" />
    <circle cx="28" cy="16" r="1" fill="#fff" />
  </g>
</svg>