<svg xmlns="http://www.w3.org/2000/svg" width="32" height="32" viewBox="0 0 32 32" fill="none" stroke="currentColor" stroke-width="2" stroke-linecap="round" stroke-linejoin="round">
  <!-- Left hemisphere -->
  <path d="M8 12h4v4h-4zM12 8h4v4h-4zM12 16h4v4h-4zM8 20h4v4h-4z" />
  
  <!-- Right hemisphere -->
  <path d="M16 12h4v4h-4zM20 8h4v4h-4zM20 16h4v4h-4zM16 20h4v4h-4z" />
  
  <!-- Connecting elements -->
  <path d="M14 6h4v2h-4zM14 24h4v2h-4z" />
  
  <!-- Neural connections (pixelated) -->
  <path d="M10 14h2v2h-2zM18 14h2v2h-2zM14 10h2v2h-2zM14 18h2v2h-2z" />
</svg>